<?xml version="1.0" encoding="UTF-8" standalone="no"?>
<!-- Created with Inkscape (http://www.inkscape.org/) -->

<svg
   xmlns:dc="http://purl.org/dc/elements/1.1/"
   xmlns:cc="http://creativecommons.org/ns#"
   xmlns:rdf="http://www.w3.org/1999/02/22-rdf-syntax-ns#"
   xmlns:svg="http://www.w3.org/2000/svg"
   xmlns="http://www.w3.org/2000/svg"
   xmlns:sodipodi="http://sodipodi.sourceforge.net/DTD/sodipodi-0.dtd"
   xmlns:inkscape="http://www.inkscape.org/namespaces/inkscape"
   width="287mm"
   height="211mm"
   viewBox="0 0 287 211"
   version="1.1"
   id="svg34"
   sodipodi:docname="banner.svg"
   inkscape:version="0.92.4 (33fec40, 2019-01-16)"
   inkscape:export-filename="/home/alexander/Desktop/ee-logo.png"
   inkscape:export-xdpi="300"
   inkscape:export-ydpi="300">
  <defs
     id="defs28" />
  <sodipodi:namedview
     id="base"
     pagecolor="#ffffff"
     bordercolor="#666666"
     borderopacity="1.0"
     inkscape:pageopacity="0.0"
     inkscape:pageshadow="2"
     inkscape:zoom="0.82"
     inkscape:cx="627.14282"
     inkscape:cy="395.88706"
     inkscape:document-units="mm"
     inkscape:current-layer="layer1"
     showgrid="false"
     inkscape:window-width="1859"
     inkscape:window-height="1056"
     inkscape:window-x="61"
     inkscape:window-y="24"
     inkscape:window-maximized="1"
     showguides="true"
     fit-margin-top="0"
     fit-margin-left="0"
     fit-margin-right="0"
     fit-margin-bottom="0">
    <inkscape:grid
       type="xygrid"
       id="grid4843"
       originx="-30.025399"
       originy="-97.461879" />
  </sodipodi:namedview>
  <metadata
     id="metadata31">
    <rdf:RDF>
      <cc:Work
         rdf:about="">
        <dc:format>image/svg+xml</dc:format>
        <dc:type
           rdf:resource="http://purl.org/dc/dcmitype/StillImage" />
        <dc:title />
      </cc:Work>
    </rdf:RDF>
  </metadata>
  <g
     inkscape:label="Layer 1"
     inkscape:groupmode="layer"
     id="layer1"
     style="display:inline;opacity:1"
     transform="translate(-30.025398,11.46188)">
    <path
       sodipodi:nodetypes="cccccc"
       inkscape:connector-curvature="0"
       id="path4617"
       d="m 316.71914,156.54333 -41.53958,-0.26458 v 32.01458 l 41.53958,0.52917 -15.08125,-16.53646 z"
       style="fill:#ddca50;fill-opacity:1;fill-rule:nonzero;stroke:none;stroke-width:5;stroke-miterlimit:4;stroke-dasharray:none;stroke-opacity:1" />
    <rect
       style="fill:#31b240;fill-opacity:1;fill-rule:nonzero;stroke:none;stroke-width:0.26458332;stroke-opacity:1"
       id="rect4810"
       width="1.9402683"
       height="0"
       x="148.16667"
       y="97.592361" />
    <circle
       style="fill:#ffffff;fill-opacity:1;fill-rule:nonzero;stroke:#ddca50;stroke-width:5;stroke-miterlimit:4;stroke-dasharray:none;stroke-opacity:1"
       id="path892"
       cx="177.23372"
       cy="91.885002"
       r="100" />
    <g
       id="g890"
       transform="translate(77.208333,-35.153118)">
      <circle
         r="70"
         style="fill:#6aeded;fill-opacity:1;stroke-width:0.26458332"
         cy="129.53812"
         cx="100.0254"
         id="path36" />
      <path
         d="m 100.025,59.537994 a 70,70 0 0 1 70,69.999996 70,70 0 0 1 -70,70 l 0,-70 z"
         sodipodi:end="1.5707963"
         sodipodi:start="4.712389"
         sodipodi:ry="70"
         sodipodi:rx="70"
         sodipodi:cy="129.53799"
         sodipodi:cx="100.025"
         sodipodi:type="arc"
         id="path4822"
         style="fill:#14a5a5;fill-opacity:1;fill-rule:nonzero;stroke:none;stroke-width:0.26458332;stroke-opacity:1" />
      <path
         inkscape:connector-curvature="0"
         id="path4727"
         transform="matrix(0.26458333,0,0,0.26458333,30.025398,59.537994)"
         d="m 376.18555,53.160156 -6,2 -4,5.333985 -1.66797,7.333984 c 0,0 1.00132,4.998701 0.66797,6.332031 -0.33336,1.333338 -3.66797,5 -3.66797,5 l -3.66602,5.667969 1,4.332031 c 0,0 1.33331,5.667314 3,6.333985 1.66666,0.666659 3.33334,2.000655 5,1.333984 1.6667,-0.666671 5,-2.667969 5,-2.667969 0,0 3.33396,2.667972 4.33399,4.667969 0.99998,2.000005 1.00001,4.666675 2,5.999995 1.00002,1.33334 4.66601,2 4.66601,2 l 1,-4.66796 -0.66601,-4.666019 1.33203,-4.333985 -0.66602,-4.332031 -3,-1 -3,-1.667969 -1,-5.666015 1.66602,-5 0.33398,-5 2.33399,-2.333985 3.33203,2 2,5.333985 -0.33203,4 1.33203,4.333984 4.66797,4.666016 h 6.33203 l 2.66797,-0.333985 6.33203,6 -7.66602,1.333985 3,5.333979 -3,0.33204 -2,0.66796 1.66602,3.66602 0.66797,5.66602 -4,2.66796 -4,-0.66796 -5.66797,2.66796 -5.33203,-1 -7,0.33204 -4.33399,4.33398 -2.66601,6.33398 -2,4.66602 -4.33399,1 -3,2.33398 -3.66601,2 2.33203,3 4,3 0.33398,3.33204 1.66602,6.33398 -1,4.66602 -5,1.33398 -7.33203,-1.66602 h -4 l -1,2 0.66601,4.66602 -1,6 3.66602,7.33398 6,3.33204 7.66797,0.33398 5,-3 1.33203,-6 v -5.33398 l 3,-2.66602 3,-6.66602 1.33398,-2.66796 3.33399,1 5,-1 1.33203,-2.66602 3.33398,0.33398 5.33399,4 3.33203,5.33204 2.66797,4.33398 1,5.66602 4,2.66796 3.66601,-0.66796 3.33399,-3.33204 -1,-4 -4.33399,-3.33398 -4,-4.33398 -1.33398,-4.66602 0.66797,-2.33398 5,2.33398 7.33203,4.33398 4.66797,2.33204 4.33203,5.66796 0.33398,5 6.33399,3.33204 2.66601,-0.33204 1.33399,-5 6,-2 2.66601,-1.33398 -2.33398,-9.66602 1,-6.66796 1.66797,-4 4.33203,-0.33204 6.33398,5.33204 1,-5.33204 c 0,0 3.33401,-2.33398 5.33399,-2.33398 2.00001,0 4.33333,3.33269 5,4.66602 0.66667,1.33333 -1.6673,5.0013 1.66601,6.66796 3.33336,1.66666 8.33399,3.66602 8.33399,3.66602 l 7.66601,6.33398 -2.33398,6.33204 -6,-1 -6.33203,-2.66602 -6.33399,-1.66602 -5.33398,1.33204 -5.33203,2.66796 -4.33399,2.33204 -0.66601,4.66796 5.66601,4.33204 9,3.33398 8.33399,0.66602 6.33203,-0.66602 4.33398,5.66602 2.33399,9.33398 -0.33399,5.33398 -1.66601,3 -8,0.33204 -6.66797,0.33398 -9,-1 -9.66602,-4 -6.66601,-3.66602 -3.66797,0.33204 1.33398,4.33398 -0.33398,4.66602 -3.33203,1.66796 -9.33399,-4.66796 -4,-4.33204 -5.66601,-1.33398 -8.33399,-4.33398 -6,-7 -3,-6.33204 -3,1.66602 -6,0.33398 -7,-1.33398 -8.33398,4.33398 -2.33203,3.33204 -7.33399,-3 -6,1.33398 -7,10.66602 -1,7.66796 -6.66601,11.33204 -4,5.33398 -5.33399,11 -1.66601,6.66602 4,7.33398 c 0,0 1.66538,8.00064 1.33203,9.33398 -0.33336,1.33331 -4,9.66602 -4,9.66602 l 3,5.66602 c 0,0 11.66664,19.66728 12,21.33398 0.33331,1.66666 13.66797,11 13.66797,11 l 13,0.33398 12.66601,-2 15.66602,-3.33398 6.33398,7.66602 7,4.33398 c 0,0 3.66602,7.00064 3.66602,8.33398 0,1.33331 -1.66602,10.33204 -1.66602,10.33204 v 5.33398 l 7.33399,11.33398 2.66601,15.66602 -1.66601,18.33398 -7.66797,12.66602 -2,10 c 0,0 1.33398,26.00064 1.33398,27.33398 0,1.33331 -4,20.33204 -4,20.33204 l 1.33399,30.33398 6.33203,-4 16,-14 14.66797,-13.33398 13,-13.66602 14.66601,-19.66602 11.33399,-16 9.33203,-17.33398 14,-33.33398 8.66797,-32.33204 3.33203,-21 -4.33203,-6.33398 -4,-10 -6.33399,-8.33398 -7.33398,-9.33204 -5.33203,-10.33398 -3,-7 -7.66797,-12.33398 -8.66602,-12.66602 -4.66601,-8.66602 9.66601,1.66602 c 0,0 1.66603,6.33267 2.66602,7.66602 0.99999,1.33334 4.33398,6 4.33398,6 l 7.66602,5 c 0,0 4.66664,8.00064 5,9.33398 0.33335,1.33334 1.00131,7.00068 2.66797,8.33398 1.66666,1.33335 5.66601,5.66602 5.66601,5.66602 0,0 5.3327,6.00064 5.66602,7.33398 0.33335,1.33331 4,8.33204 4,8.33204 l 5.33398,14.33398 0.66602,-19.33398 -0.33203,-22 -3,-22.33204 -5.66797,-27.33398 -9.66602,-28.66602 v -3 h -1.30859 l -6.69141,-15.33398 -11,-19.33398 -9.66601,-15.33204 -14,-17.667964 -14.33399,-16.332031 -12.66601,-11.667969 -8.66797,-6.332031 -4,5.332031 -5,0.667969 -4.66602,3.666016 -1.33398,8 -3.66602,4 -4.66601,-6 -4.66797,-3.333985 -4.33203,-4.666015 -2.66797,-4.666016 -4.66602,-5.667969 -7.66601,-4 z"
         style="fill:#59d167;fill-opacity:1;stroke:none;stroke-width:0.99999994px;stroke-linecap:butt;stroke-linejoin:miter;stroke-opacity:1" />
      <path
         inkscape:connector-curvature="0"
         id="path4729-3"
         transform="matrix(0.26458333,0,0,0.26458333,30.025398,59.537994)"
         d="m 239.74023,27.298828 -6.55859,1.425781 c 0,0 -6.40856,4.250493 -7.27734,4.976563 -0.86879,0.726066 -3.79899,4.281401 -4.30469,5.441406 -0.50571,1.160001 -2.27539,5.21875 -2.27539,5.21875 l -4.3086,3.232422 c 10e-6,0 -5.54124,3.524381 -7.31445,5.375 -1.7731,1.85057 -1.15429,3.914062 -1.15429,3.914062 l -1.11329,5.72461 -2.74609,5.980469 3.44141,-0.294922 3.40429,-2.107422 5.58203,0.496094 6.78321,2.810547 6.27539,3.972656 2.43359,4.232422 -0.0664,3.007812 4.54101,7.632813 3.52149,3.326171 3.62695,2.128907 4.9668,0.642578 2.86132,-0.548828 0.6836,-3.152344 c 0,0 -1.63655,-4.161464 -2.07422,-6.007813 -0.43766,-1.846348 -0.95313,-7.314453 -0.95313,-7.314453 0,0 1.15454,-3.914395 1.8418,-4.857421 0.68725,-0.943034 1.76953,-4.060547 1.76953,-4.060547 l -0.40429,-4.453125 2.0957,-3.228516 2.75,-3.771484 1.29883,-3.298828 -2.93555,-0.863282 -4.0293,-4.375 -0.51367,-3.257812 1.33594,-3.697266 -1.45508,-3.945312 -4.0293,-4.375 -3.48633,-3.72461 z M 80.517578,75.828125 67.185547,89.160156 56.851562,101.82812 l -11.333984,15 -12.332031,22 -10.667969,19 -6.332031,17 -6,17 2.666015,5.66602 5,11 4,11.66602 4,11 2.666016,7.66796 -2,5.33204 0.333984,7 5.666016,4 12.333984,6 9.666016,2.33398 4.333984,-0.66602 3.666016,-1.66796 4.667969,1 3,4.33398 4.666015,4 5.666016,2.66602 h 4.667969 4 l 1.332031,3.33398 2.333984,6.33398 4.333985,4.66602 5.666013,4.66602 6.33399,3 15.64843,0.24414 -9.64843,-2.24414 -7.66797,-3.66602 -4,-5 -3,-7.33398 1.66797,-6.33204 0.66601,-5 -4.333982,-2.33398 c 0,0 -4.332678,0.66602 -5.666016,0.66602 h -6 l -3.333984,-5 2.667969,-4.33204 5.666015,-7.33398 v -5.33398 l -4.333984,-1 -4.666016,3 -3.333984,4 -4.666016,3 c 0,0 -4.332685,1.33398 -5.666015,1.33398 -1.333342,0 -6.333985,-0.66601 -6.333985,-0.66602 l -4,-6.66796 -1.666015,-9 2.332031,-8.66602 3.667969,-8.33398 4.666015,-7 6.666016,-3.33204 7.333984,-3.66796 c 0,0 3.999347,0.66668 5.666016,1 1.66667,0.33335 6.667969,1 6.667969,1 l 5,-2.33204 5.000003,-3.33398 5.33203,-0.33398 c 0,0 2.33333,3.66664 4,4 1.66667,0.33335 5.66797,-0.33204 5.66797,-0.33204 l 2.66601,6.33204 0.33399,7.33398 c 0,0 1.66666,2.66602 3,2.66602 1.33333,0 4,-3 4,-3 l 1.66601,-6.33204 v -7.66796 l 1.33399,-6.66602 3,-3.66602 3.66601,-3 6.33399,-4.33398 3.33203,-3.66602 2,-5.33398 2,-5.66602 5,-4.33398 6.66797,-5 7.66601,-4.66602 4.66602,-5 4.66797,-3.66796 5.33203,-2.33204 4,-4.33398 -0.33203,-4.66602 -4.33399,-2 h -4 l -1,-2.66796 4,-4 c 0,0 4.33269,-2.66666 5.66602,-3 1.33333,-0.33332 8.33398,-1.66602 8.33398,-1.66602 l 6.33399,-1 2.66601,-3.66602 -1.33398,-2 c 0,0 -0.66667,-0.33461 -2,-1.66796 -1.33333,-1.33333 -3,-6.33204 -3,-6.33204 l -2,-8 c 0,0 -1,-3.000653 -2,-4.333979 -1,-1.333342 -4.66602,-4.666016 -4.66602,-4.666016 l -4.33398,-0.333984 -3.33203,4.333984 -0.33399,5.332035 -1.33398,4.66796 -5.66602,3.66602 -2.33398,5.66602 -3,5 -4.33203,1.33398 c 0,0 -3,-4.00064 -3,-5.33398 0,-1.33333 -0.33399,-8.66602 -0.33399,-8.66602 l -4,-3.33398 c 0,0 -9,-2.66666 -10,-5 -1,-2.333333 0.33399,-6.666019 0.33399,-6.666019 l 4.66601,-3.333985 8.66602,-2 5.33398,-3.332031 1.66602,-4.333984 -3.66602,-1.333985 -6,-1 -8.66601,2.667969 c 0,0 -4.33334,1.9987 -6,2.332031 -1.66668,0.333355 -5.33334,-1 -7,-1 h -10 c 0,0 -3.66732,1.333985 -5.33399,1.333985 -1.66666,0 -4.00065,-0.333985 -5.33398,-0.333985 -1.33333,0 -9.66602,-3.332031 -9.66602,-3.332031 0,0 -4.00065,-1.667969 -6.33398,-1.667969 H 93.517578 l -5.666016,0.333985 z m 44.316402,219.576175 0.56055,5.125 0.2793,6.83203 -1.67774,5.97851 -4.47461,5.69336 -2.79687,5.97852 -0.83984,5.41016 2.79687,2.84765 -0.2793,1.42188 -2.51757,2.5625 -0.83985,2.5625 1.39844,1.13867 10.62891,12.24219 c 0,0 5.03358,11.10287 6.15234,13.0957 1.11876,1.99287 8.11133,9.10937 8.11133,9.10937 l 9.50976,3.98633 7.27149,6.26367 c 0,0 2.79804,8.54092 3.35742,9.67969 0.55938,1.13877 2.23633,12.81055 2.23633,12.81055 l 2.23828,13.95117 2.79687,9.10937 4.19532,13.94922 1.39843,10.81836 1.11914,6.83399 c 0,0 3.63516,6.83197 4.75391,7.9707 1.11877,1.13877 5.59375,5.69336 5.59375,5.69336 l 2.23828,7.97266 1.11914,3.70117 0.01,0.002 c 0.10705,0.14676 0.18196,0.27871 0.13281,0.36328 l 2.19336,5.62696 5.5,1.25 3.07227,-4.67969 2.23632,-8.25781 0.2793,-7.40039 -2.79687,-3.70118 2.23828,-3.98632 2.23828,-5.41016 c 0,0 3.35586,-0.85249 4.47461,-1.42188 1.11877,-0.56934 2.79687,-5.125 2.79687,-5.125 l -1.39844,-4.55468 -2.79687,-4.27149 -1.95898,-2.8457 1.67968,-1.42383 c 0,0 2.23632,0.28498 3.63477,1.42383 1.39845,1.13881 3.63672,1.42187 3.63672,1.42187 l 2.23633,-1.42187 0.28125,-4.83985 1.67773,-3.41601 1.11914,-5.69531 3.07617,-5.69336 0.83789,-4.26953 -1.11718,-5.41016 -0.28125,-3.13086 3.07812,-3.98633 5.59375,-4.83984 4.47461,-1.70899 3.35547,-1.13867 2.79687,-6.54687 0.2793,-7.11719 V 378.25 c 0,0 1.95898,-4.55459 1.95898,-5.69336 0,-1.13877 -1.95898,-6.83398 -1.95898,-6.83398 l -1.95703,-2.27735 5.31445,-2.8457 1.95703,-3.13281 1.67969,-5.69336 3.07617,-2.84766 1.39844,-3.69922 -1.39844,-4.55664 -3.63672,-3.13086 -4.7539,-1.13867 -3.63672,-3.13086 -2.79688,-2.2793 -6.43359,-1.42187 -3.63476,1.70703 -1.39844,0.57031 -1.67774,-2.84765 -3.35742,-4.55469 -2.51758,-0.85352 -3.91406,2.27735 -2.79687,1.13867 -1.95899,-2.27734 -3.07617,-1.13868 c 0,0 -2.79726,2.56158 -3.91602,1.99219 -1.11876,-0.56942 -1.95703,-3.13281 -1.95703,-3.13281 l 3.07617,-3.98438 1.95704,-4.27148 -1.95704,-5.97852 -3.35546,-4.26953 -4.47657,-2.84765 -5.59375,-1.13868 -4.47461,-0.28515 -4.7539,-4.26953 -3.35742,-2.84766 -3.63477,-3.13086 -3.91602,-2.5625 -4.75585,-0.56836 -4.47461,0.2832 -3.91602,-1.13867 -2.23633,-1.70703 -2.79687,-2.27734 -3.91602,0.85351 -2.51758,4.26953 c 0,0 1.9586,3.41647 0.83985,3.70118 -1.11877,0.2846 -3.91602,-0.28321 -3.91602,-0.28321 l -1.67773,-3.70117 0.55859,-3.70117 h -5.03516 l -2.79687,3.41602 -1.67773,3.98632 -2.51758,3.41602 h -2.23633 z"
         style="display:inline;opacity:1;fill:#31b240;fill-opacity:1;stroke:none;stroke-width:0.84654194px;stroke-linecap:butt;stroke-linejoin:miter;stroke-opacity:1" />
    </g>
    <path
       style="fill:#ddca50;fill-opacity:1;fill-rule:nonzero;stroke:none;stroke-width:5;stroke-miterlimit:4;stroke-dasharray:none;stroke-opacity:1"
       d="m 30.025398,156.54333 41.539582,-0.26458 v 32.01458 l -41.539582,0.52917 15.08125,-16.53646 z"
       id="rect899"
       inkscape:connector-curvature="0"
       sodipodi:nodetypes="cccccc" />
    <path
       style="fill:#a3901f;fill-opacity:1;stroke:none;stroke-width:0.26458332px;stroke-linecap:butt;stroke-linejoin:miter;stroke-opacity:1"
       d="m 59.733729,158.65999 11.831251,-2.38124 -0.264583,10.05417 z"
       id="path897"
       inkscape:connector-curvature="0" />
    <path
       inkscape:connector-curvature="0"
       id="path912"
       d="m 287.01081,158.65999 -11.83125,-2.38124 0.26458,10.05417 z"
       style="fill:#a3901f;fill-opacity:1;stroke:none;stroke-width:0.26458332px;stroke-linecap:butt;stroke-linejoin:miter;stroke-opacity:1" />
    <path
       style="fill:#e9dd91;fill-opacity:1;fill-rule:nonzero;stroke:none;stroke-width:5;stroke-miterlimit:4;stroke-dasharray:none;stroke-opacity:1"
       d="m 59.733731,158.65999 c 75.759029,10.05417 151.518049,10.05417 227.277079,0 v 33.3375 c -75.75903,10.05417 -151.51805,10.05417 -227.277079,0 z"
       id="rect894"
       inkscape:connector-curvature="0"
       sodipodi:nodetypes="ccccc" />
    <text
       xml:space="preserve"
       style="font-style:normal;font-variant:normal;font-weight:bold;font-stretch:normal;font-size:26.45833397px;line-height:1.25;font-family:Catamaran;-inkscape-font-specification:'Catamaran Bold';letter-spacing:0px;word-spacing:0px;fill:#ff5c53;fill-opacity:1;stroke:none;stroke-width:0.26458332"
       x="92.108734"
       y="188.02875"
       id="text872"><tspan
         sodipodi:role="line"
         id="tspan870"
         x="92.108734"
         y="188.02875"
         style="font-size:26.45833397px;fill:#ff5c53;fill-opacity:1;stroke-width:0.26458332">EqualsEquals</tspan></text>
    <text
       xml:space="preserve"
       style="font-style:normal;font-variant:normal;font-weight:bold;font-stretch:normal;font-size:10.58333302px;line-height:1.25;font-family:Catamaran;-inkscape-font-specification:'Catamaran Bold';letter-spacing:0px;word-spacing:0px;fill:#000000;fill-opacity:1;stroke:none;stroke-width:0.26458332"
       x="139.5629"
       y="282.61728"
       id="text903"><tspan
         sodipodi:role="line"
         id="tspan901"
         x="139.5629"
         y="292.08936"
         style="stroke-width:0.26458332" /></text>
  </g>
</svg>
